<svg width="512" height="512" xmlns="http://www.w3.org/2000/svg">
  <g>
    <title></title>
    <path fill="#1f776f" id="svg_5" d="m425.83332,42.58333l-340.66666,0c-23.42083,0 -42.58333,19.1625 -42.58333,42.58333l0,383.24999l85.16666,-85.16666l298.08332,0c23.42083,0 42.58333,-19.1625 42.58333,-42.58333l0,-255.49999c0,-23.42083 -19.1625,-42.58333 -42.58333,-42.58333zm0,298.08332l-315.75541,0l-24.91125,24.91125l0,-280.41124l340.66666,0l0,255.49999z"/>
    <polygon fill="#1f776f" id="svg_6" points="255.49999237060547,319.37499046325684 288.9279015413922,246.34456947962462 361.9583225250244,212.9166603088379 288.9279015413922,179.48875113805116 255.49999237060547,106.45833015441895 222.07208319981874,179.48875113805116 149.04166221618652,212.9166603088379 222.07208319981874,246.34456947962462 "/>
  </g>
</svg>